<svg width="512" height="512" viewBox="0 0 512 512" fill="none" xmlns="http://www.w3.org/2000/svg">
  <rect width="512" height="512" rx="120" fill="#0F172A"/>
  <rect width="512" height="512" rx="120" fill="url(#paint0_linear_1_1)" fill-opacity="0.5"/>
  <g filter="url(#filter0_d_1_1)">
    <path d="M256 128C227.281 128 204 151.281 204 180V210C204 238.719 227.281 261.719 256 261.719C284.719 261.719 308 238.719 308 210V180C308 151.281 284.719 128 256 128Z" fill="white"/>
    <path d="M160 280L220 440H292L352 280H160Z" stroke="white" stroke-width="20" stroke-linecap="round" stroke-linejoin="round"/>
    <path d="M205 330H307M195 375H317M185 420H327" stroke="white" stroke-width="12" stroke-linecap="round"/>
  </g>
  <defs>
    <filter id="filter0_d_1_1" x="140" y="118" width="232" height="342" filterUnits="userSpaceOnUse" color-interpolation-filters="sRGB">
      <feFlood flood-opacity="0" result="BackgroundImageFix"/>
      <feColorMatrix in="SourceAlpha" type="matrix" values="0 0 0 0 0 0 0 0 0 0 0 0 0 0 0 0 0 0 127 0" result="hardAlpha"/>
      <feOffset dy="10"/>
      <feGaussianBlur stdDeviation="10"/>
      <feComposite in2="hardAlpha" operator="out"/>
      <feColorMatrix type="matrix" values="0 0 0 0 0 0 0 0 0 0 0 0 0 0 0 0 0 0 0.25 0"/>
      <feBlend mode="normal" in2="BackgroundImageFix" result="effect1_dropShadow_1_1"/>
      <feBlend mode="normal" in="SourceGraphic" in2="effect1_dropShadow_1_1" result="shape"/>
    </filter>
    <linearGradient id="paint0_linear_1_1" x1="0" y1="0" x2="512" y2="512" gradientUnits="userSpaceOnUse">
      <stop stop-color="#6366F1"/>
      <stop offset="1" stop-color="#A855F7" stop-opacity="0"/>
    </linearGradient>
  </defs>
</svg>
